<svg xmlns="http://www.w3.org/2000/svg" width="94" height="25" viewBox="0 0 94 25" fill="none">
  <g fill="#fff">
    <path stroke="#fff" stroke-width=".25" d="m10.796 14.06 2.007.002h.071l.037.061 4.524 7.815.11.19-.22-.003-2.02-.034-.071-.001-.035-.06-1.738-2.96H2.5l.114-.19 1.04-1.725.036-.06h8.65l-1.652-2.848-.11-.188zM16.898 2.36l.98 1.76.035.06-.036.062-1.72 3.007 5.351 9.227.11.191-.22-.003-2.02-.034-.07-.002-.036-.06-4.262-7.345-1.603 2.792-.109.188-.108-.188-1.017-1.765-.036-.062.036-.063 1.718-2.96 2.79-4.807.11-.19zm-6.615-.422.98 1.76.034.06-.035.062-4.265 7.352h3.667l-.106.186-.97 1.725-.037.064H.178l.114-.19 1.04-1.725.037-.06h3.34l5.356-9.235.11-.19z"/>
    <text x="34" y="18.5" font-family="Arial, Helvetica, sans-serif" font-size="15" font-weight="700" letter-spacing="1.5">VPD</text>
  </g>
</svg>
